<svg width="200px" height="200px" viewBox="0 0 200 200" version="1.1" xmlns="http://www.w3.org/2000/svg" xmlns:xlink="http://www.w3.org/1999/xlink">
    <defs></defs>
    <g id="Page-1" stroke="none" stroke-width="1" fill="none" fill-rule="evenodd">
        <g id="Desktop-HD-Copy" transform="translate(-100.000000, -97.000000)" stroke="#000000">
            <g id="logo" transform="translate(100.000000, 97.000000)">
                <rect id="Rectangle-Copy" x="0.5" y="0.5" width="199" height="199"></rect>
                <path d="M97.4707031,135.09375 L83.2128906,135.09375 L54.5507812,87.1445312 L54.2578125,87.1933594 L54.2578125,135.09375 L40,135.09375 L40,64 L54.2578125,64 L82.9199219,111.900391 L83.2128906,111.851562 L83.2128906,64 L97.4707031,64 L97.4707031,135.09375 Z M110.556641,135.09375 L110.556641,64 L133.847656,64 C142.213583,64 148.740211,65.6357258 153.427734,68.9072266 C158.115258,72.1787273 160.458984,77.0370771 160.458984,83.4824219 C160.458984,86.7376465 159.612639,89.6510288 157.919922,92.2226562 C156.227205,94.7942837 153.753271,96.7311133 150.498047,98.0332031 C154.925152,98.8470093 158.261708,100.767563 160.507812,103.794922 C162.753917,106.822281 163.876953,110.354146 163.876953,114.390625 C163.876953,121.194044 161.630882,126.34536 157.138672,129.844727 C152.646462,133.344093 146.282593,135.09375 138.046875,135.09375 L110.556641,135.09375 Z M124.814453,103.648438 L124.814453,124.15625 L138.046875,124.15625 C141.822936,124.15625 144.703766,123.334318 146.689453,121.69043 C148.67514,120.046541 149.667969,117.613297 149.667969,114.390625 C149.667969,110.940087 148.691416,108.287119 146.738281,106.431641 C144.785146,104.576163 141.839212,103.648438 137.900391,103.648438 L124.814453,103.648438 Z M124.814453,93.7851562 L134.335938,93.7851562 C138.14455,93.7851562 141.074208,93.0039141 143.125,91.4414062 C145.175792,89.8788984 146.201172,87.6002754 146.201172,84.6054688 C146.201172,81.3176919 145.167654,78.8925859 143.100586,77.3300781 C141.033518,75.7675703 137.949239,74.9863281 133.847656,74.9863281 L124.814453,74.9863281 L124.814453,93.7851562 Z" id="NB-Copy"></path>
            </g>
        </g>
    </g>
</svg>